<mxfile host="app.diagrams.net" modified="2022-12-06T06:38:27.164Z" agent="5.0 (Windows NT 10.0; Win64; x64) AppleWebKit/537.36 (KHTML, like Gecko) Chrome/108.0.0.0 Safari/537.36" version="20.6.0" etag="aSnPy7-a_ABvANW1Un-8" type="github">
  <diagram id="kKtefNtfCuaQAJxGlqK9" name="第 1 页">
    <mxGraphModel dx="2062" dy="1114" grid="1" gridSize="10" guides="1" tooltips="1" connect="1" arrows="1" fold="1" page="1" pageScale="1" pageWidth="827" pageHeight="1169" math="0" shadow="0">
      <root>
        <mxCell id="0" />
        <mxCell id="1" parent="0" />
        <mxCell id="_QpUfMXoZ0_1t7JxqoGL-3" style="edgeStyle=orthogonalEdgeStyle;rounded=0;orthogonalLoop=1;jettySize=auto;html=1;startArrow=classic;startFill=1;endArrow=none;endFill=0;" edge="1" parent="1" source="_QpUfMXoZ0_1t7JxqoGL-1" target="_QpUfMXoZ0_1t7JxqoGL-2">
          <mxGeometry relative="1" as="geometry" />
        </mxCell>
        <mxCell id="_QpUfMXoZ0_1t7JxqoGL-1" value="github" style="shape=process;whiteSpace=wrap;html=1;backgroundOutline=1;" vertex="1" parent="1">
          <mxGeometry x="110" y="490" width="120" height="60" as="geometry" />
        </mxCell>
        <mxCell id="_QpUfMXoZ0_1t7JxqoGL-12" style="edgeStyle=orthogonalEdgeStyle;rounded=0;orthogonalLoop=1;jettySize=auto;html=1;entryX=0;entryY=0.5;entryDx=0;entryDy=0;startArrow=none;startFill=0;endArrow=classic;endFill=1;" edge="1" parent="1" source="_QpUfMXoZ0_1t7JxqoGL-2" target="_QpUfMXoZ0_1t7JxqoGL-4">
          <mxGeometry relative="1" as="geometry" />
        </mxCell>
        <mxCell id="_QpUfMXoZ0_1t7JxqoGL-14" style="edgeStyle=orthogonalEdgeStyle;rounded=0;orthogonalLoop=1;jettySize=auto;html=1;entryX=0.5;entryY=0;entryDx=0;entryDy=0;startArrow=none;startFill=0;endArrow=classic;endFill=1;" edge="1" parent="1" source="_QpUfMXoZ0_1t7JxqoGL-2" target="_QpUfMXoZ0_1t7JxqoGL-13">
          <mxGeometry relative="1" as="geometry" />
        </mxCell>
        <mxCell id="_QpUfMXoZ0_1t7JxqoGL-2" value="github action" style="shape=process;whiteSpace=wrap;html=1;backgroundOutline=1;" vertex="1" parent="1">
          <mxGeometry x="354" y="490" width="120" height="60" as="geometry" />
        </mxCell>
        <mxCell id="_QpUfMXoZ0_1t7JxqoGL-25" style="edgeStyle=orthogonalEdgeStyle;rounded=0;orthogonalLoop=1;jettySize=auto;html=1;startArrow=none;startFill=0;endArrow=none;endFill=0;" edge="1" parent="1" source="_QpUfMXoZ0_1t7JxqoGL-4" target="_QpUfMXoZ0_1t7JxqoGL-13">
          <mxGeometry relative="1" as="geometry">
            <Array as="points">
              <mxPoint x="620" y="570" />
              <mxPoint x="414" y="570" />
            </Array>
          </mxGeometry>
        </mxCell>
        <mxCell id="_QpUfMXoZ0_1t7JxqoGL-4" value="github artifacts" style="shape=process;whiteSpace=wrap;html=1;backgroundOutline=1;" vertex="1" parent="1">
          <mxGeometry x="560" y="490" width="120" height="60" as="geometry" />
        </mxCell>
        <mxCell id="_QpUfMXoZ0_1t7JxqoGL-11" style="edgeStyle=orthogonalEdgeStyle;rounded=0;orthogonalLoop=1;jettySize=auto;html=1;startArrow=none;startFill=0;endArrow=none;endFill=0;entryX=0;entryY=0.5;entryDx=0;entryDy=0;" edge="1" parent="1" source="_QpUfMXoZ0_1t7JxqoGL-6" target="_QpUfMXoZ0_1t7JxqoGL-2">
          <mxGeometry relative="1" as="geometry">
            <mxPoint x="290" y="490" as="targetPoint" />
            <Array as="points">
              <mxPoint x="290" y="520" />
            </Array>
          </mxGeometry>
        </mxCell>
        <mxCell id="_QpUfMXoZ0_1t7JxqoGL-6" value="docker hub" style="shape=process;whiteSpace=wrap;html=1;backgroundOutline=1;" vertex="1" parent="1">
          <mxGeometry x="230" y="400" width="120" height="60" as="geometry" />
        </mxCell>
        <mxCell id="_QpUfMXoZ0_1t7JxqoGL-19" style="edgeStyle=orthogonalEdgeStyle;rounded=0;orthogonalLoop=1;jettySize=auto;html=1;startArrow=none;startFill=0;endArrow=none;endFill=0;" edge="1" parent="1" source="_QpUfMXoZ0_1t7JxqoGL-5" target="_QpUfMXoZ0_1t7JxqoGL-13">
          <mxGeometry relative="1" as="geometry">
            <Array as="points" />
          </mxGeometry>
        </mxCell>
        <mxCell id="_QpUfMXoZ0_1t7JxqoGL-16" style="edgeStyle=orthogonalEdgeStyle;rounded=0;orthogonalLoop=1;jettySize=auto;html=1;entryX=0;entryY=0.5;entryDx=0;entryDy=0;startArrow=none;startFill=0;endArrow=classic;endFill=1;" edge="1" parent="1" source="_QpUfMXoZ0_1t7JxqoGL-13" target="_QpUfMXoZ0_1t7JxqoGL-5">
          <mxGeometry relative="1" as="geometry">
            <Array as="points" />
          </mxGeometry>
        </mxCell>
        <mxCell id="_QpUfMXoZ0_1t7JxqoGL-13" value="github action" style="shape=process;whiteSpace=wrap;html=1;backgroundOutline=1;" vertex="1" parent="1">
          <mxGeometry x="354" y="600" width="120" height="60" as="geometry" />
        </mxCell>
        <mxCell id="_QpUfMXoZ0_1t7JxqoGL-20" value="1" style="text;html=1;align=center;verticalAlign=middle;resizable=0;points=[];autosize=1;strokeColor=none;fillColor=none;" vertex="1" parent="1">
          <mxGeometry x="285" y="525" width="30" height="30" as="geometry" />
        </mxCell>
        <mxCell id="_QpUfMXoZ0_1t7JxqoGL-22" value="2" style="text;html=1;align=center;verticalAlign=middle;resizable=0;points=[];autosize=1;strokeColor=none;fillColor=none;" vertex="1" parent="1">
          <mxGeometry x="495" y="525" width="30" height="30" as="geometry" />
        </mxCell>
        <mxCell id="_QpUfMXoZ0_1t7JxqoGL-23" value="3" style="text;html=1;align=center;verticalAlign=middle;resizable=0;points=[];autosize=1;strokeColor=none;fillColor=none;" vertex="1" parent="1">
          <mxGeometry x="384" y="560" width="30" height="30" as="geometry" />
        </mxCell>
        <mxCell id="_QpUfMXoZ0_1t7JxqoGL-5" value="windows store api" style="shape=process;whiteSpace=wrap;html=1;backgroundOutline=1;" vertex="1" parent="1">
          <mxGeometry x="600" y="600" width="120" height="60" as="geometry" />
        </mxCell>
        <mxCell id="_QpUfMXoZ0_1t7JxqoGL-27" value="4" style="text;html=1;align=center;verticalAlign=middle;resizable=0;points=[];autosize=1;strokeColor=none;fillColor=none;" vertex="1" parent="1">
          <mxGeometry x="515" y="635" width="30" height="30" as="geometry" />
        </mxCell>
      </root>
    </mxGraphModel>
  </diagram>
</mxfile>
